<svg width="33" height="32" viewBox="0 0 33 32" fill="none" xmlns="http://www.w3.org/2000/svg">
<path d="M25.9 6.54666C24.6776 5.31189 23.2216 4.33288 21.6168 3.66673C20.0121 3.00057 18.2908 2.66061 16.5533 2.66666C9.27333 2.66666 3.34 8.59999 3.34 15.88C3.34 18.2133 3.95333 20.48 5.1 22.48L3.23333 29.3333L10.2333 27.4933C12.1667 28.5467 14.34 29.1067 16.5533 29.1067C23.8333 29.1067 29.7667 23.1733 29.7667 15.8933C29.7667 12.36 28.3933 9.03999 25.9 6.54666ZM16.5533 26.8667C14.58 26.8667 12.6467 26.3333 10.9533 25.3333L10.5533 25.0933L6.39333 26.1867L7.5 22.1333L7.23333 21.72C6.137 19.9693 5.55485 17.9457 5.55333 15.88C5.55333 9.82666 10.4867 4.89333 16.54 4.89333C19.4733 4.89333 22.2333 6.03999 24.3 8.11999C25.3233 9.13861 26.1343 10.3502 26.6859 11.6846C27.2374 13.0189 27.5187 14.4495 27.5133 15.8933C27.54 21.9467 22.6067 26.8667 16.5533 26.8667ZM22.58 18.6533C22.2467 18.4933 20.62 17.6933 20.3267 17.5733C20.02 17.4667 19.8067 17.4133 19.58 17.7333C19.3533 18.0667 18.7267 18.8133 18.54 19.0267C18.3533 19.2533 18.1533 19.28 17.82 19.1067C17.4867 18.9467 16.42 18.5867 15.1667 17.4667C14.18 16.5867 13.5267 15.5067 13.3267 15.1733C13.14 14.84 13.3 14.6667 13.4733 14.4933C13.62 14.3467 13.8067 14.1067 13.9667 13.92C14.1267 13.7333 14.1933 13.5867 14.3 13.3733C14.4067 13.1467 14.3533 12.96 14.2733 12.8C14.1933 12.64 13.5267 11.0133 13.26 10.3467C12.9933 9.70666 12.7133 9.78666 12.5133 9.77333H11.8733C11.6467 9.77333 11.3 9.85333 10.9933 10.1867C10.7 10.52 9.84667 11.32 9.84667 12.9467C9.84667 14.5733 11.0333 16.1467 11.1933 16.36C11.3533 16.5867 13.5267 19.92 16.8333 21.3467C17.62 21.6933 18.2333 21.8933 18.7133 22.04C19.5 22.2933 20.22 22.2533 20.7933 22.1733C21.4333 22.08 22.7533 21.3733 23.02 20.6C23.3 19.8267 23.3 19.1733 23.2067 19.0267C23.1133 18.88 22.9133 18.8133 22.58 18.6533Z" fill="#B47681"/>
</svg>
